<?xml version="1.0" encoding="UTF-8"?>
<svg version="1.1" xmlns="http://www.w3.org/2000/svg" width="249" height="249">
<path d="M0 0 C82.17 0 164.34 0 249 0 C249 82.17 249 164.34 249 249 C166.83 249 84.66 249 0 249 C0 166.83 0 84.66 0 0 Z " fill="#FEFEFE" transform="translate(0,0)"/>
<path d="M0 0 C-0.33 2.31 -0.66 4.62 -1 7 C-3.64 7 -6.28 7 -9 7 C-8.505 16.405 -8.505 16.405 -8 26 C-6.68 26.66 -5.36 27.32 -4 28 C-3.9278125 27.22269531 -3.855625 26.44539063 -3.78125 25.64453125 C-2.71099444 20.65178904 -0.638738 16.3059822 1.5 11.6875 C1.91636719 10.76904297 2.33273438 9.85058594 2.76171875 8.90429688 C5.84416454 2.15583546 5.84416454 2.15583546 7 1 C8.66617115 0.95936168 10.33388095 0.957279 12 1 C15.48185749 8.41839054 18.83199905 15.85061101 21.921875 23.44140625 C22.85964003 25.66689936 23.91997937 27.83995874 25 30 C21.7 30 18.4 30 15 30 C13 26 13 26 13 22 C10.03 22.33 7.06 22.66 4 23 C4 24.32 4 25.64 4 27 C4.66 27.33 5.32 27.66 6 28 C6 28.66 6 29.32 6 30 C2.35418313 30.02887512 -1.29160463 30.04675585 -4.9375 30.0625 C-5.97841797 30.07087891 -7.01933594 30.07925781 -8.09179688 30.08789062 C-9.08115234 30.09111328 -10.07050781 30.09433594 -11.08984375 30.09765625 C-12.46450806 30.10551147 -12.46450806 30.10551147 -13.86694336 30.11352539 C-16 30 -16 30 -17 29 C-17.01662231 27.5086609 -16.963192 26.01639195 -16.87890625 24.52734375 C-16.83056641 23.62822266 -16.78222656 22.72910156 -16.73242188 21.80273438 C-16.67634766 20.85720703 -16.62027344 19.91167969 -16.5625 18.9375 C-16.51029297 17.98810547 -16.45808594 17.03871094 -16.40429688 16.06054688 C-16.27418642 13.70673048 -16.13920888 11.35329301 -16 9 C-15.01 8.67 -14.02 8.34 -13 8 C-19.27570091 7.77725956 -19.27570091 7.77725956 -25 10 C-27.98970481 9.64827002 -28.82711465 9.17288535 -31 7 C-33.58354218 6.83312552 -33.58354218 6.83312552 -36 7 C-36 7.99 -36 8.98 -36 10 C-35.24074219 10.17015625 -34.48148438 10.3403125 -33.69921875 10.515625 C-32.70535156 10.75796875 -31.71148437 11.0003125 -30.6875 11.25 C-29.70136719 11.48203125 -28.71523437 11.7140625 -27.69921875 11.953125 C-24.61086316 13.15092428 -23.61437069 14.14794511 -22 17 C-21.40334849 20.92085277 -21.84812466 22.70749935 -23.6875 26.25 C-26.16574697 29.1971045 -27.29689353 30.13881245 -31 31 C-34.2633733 31.17482357 -37.1739023 31.1759589 -40.3737793 30.49438477 C-43.1540426 29.97100156 -45.69234999 29.88654944 -48.51953125 29.90234375 C-50.0519043 29.90717773 -50.0519043 29.90717773 -51.61523438 29.91210938 C-53.19788086 29.92467773 -53.19788086 29.92467773 -54.8125 29.9375 C-55.88693359 29.94201172 -56.96136719 29.94652344 -58.06835938 29.95117188 C-60.71229683 29.96292271 -63.35611952 29.97935213 -66 30 C-66.48919922 28.71802734 -66.48919922 28.71802734 -66.98828125 27.41015625 C-67.64376953 25.75306641 -67.64376953 25.75306641 -68.3125 24.0625 C-68.74175781 22.96035156 -69.17101562 21.85820313 -69.61328125 20.72265625 C-70.75608861 17.69139735 -70.75608861 17.69139735 -74 17 C-73.67 20.3 -73.34 23.6 -73 27 C-72.01 27.33 -71.02 27.66 -70 28 C-70 28.66 -70 29.32 -70 30 C-73.96 30 -77.92 30 -82 30 C-82.07347656 27.34517578 -82.07347656 27.34517578 -82.1484375 24.63671875 C-82.22346332 22.32029641 -82.29901123 20.00389095 -82.375 17.6875 C-82.4059375 16.52025391 -82.436875 15.35300781 -82.46875 14.15039062 C-82.50742188 13.03212891 -82.54609375 11.91386719 -82.5859375 10.76171875 C-82.6173584 9.73006592 -82.6487793 8.69841309 -82.68115234 7.63549805 C-82.82674629 4.77156764 -82.82674629 4.77156764 -85 2 C-81.37506666 1.94212216 -77.75025143 1.9064458 -74.125 1.875 C-73.09246094 1.85824219 -72.05992188 1.84148437 -70.99609375 1.82421875 C-70.00996094 1.81777344 -69.02382812 1.81132813 -68.0078125 1.8046875 C-66.64100342 1.78897705 -66.64100342 1.78897705 -65.24658203 1.77294922 C-63 2 -63 2 -61 4 C-60.625 7.375 -60.625 7.375 -61 11 C-63 13.4375 -63 13.4375 -65 15 C-64.4225 15.495 -63.845 15.99 -63.25 16.5 C-60.76296913 19.26336763 -59.4404015 21.92819666 -57.9296875 25.29296875 C-57.11151366 27.18240609 -57.11151366 27.18240609 -55 28 C-55 20.08 -55 12.16 -55 4 C-55.99 3.67 -56.98 3.34 -58 3 C-58 2.67 -58 2.34 -58 2 C-54.37 2 -50.74 2 -47 2 C-46.505 14.375 -46.505 14.375 -46 27 C-45.34 27.33 -44.68 27.66 -44 28 C-43.67 25.36 -43.34 22.72 -43 20 C-42.01 20 -41.02 20 -40 20 C-37.8125 22.5 -37.8125 22.5 -36 25 C-34.35 24.67 -32.7 24.34 -31 24 C-31 22.68 -31 21.36 -31 20 C-31.60328125 19.91363281 -32.2065625 19.82726562 -32.828125 19.73828125 C-36.88938578 19.0242854 -39.4092412 18.51871504 -42.5625 15.75 C-44.30825464 12.41029547 -44.6962938 10.71356692 -44 7 C-41.5625 4.1875 -41.5625 4.1875 -39 2 C-38.67 1.67 -38.34 1.34 -38 1 C-32.57498256 0.41714689 -28.45613675 0.55008768 -24 4 C-23.67 3.34 -23.34 2.68 -23 2 C-22.15236084 1.96241577 -22.15236084 1.96241577 -21.28759766 1.92407227 C-18.73316258 1.80820044 -16.1791045 1.68543463 -13.625 1.5625 C-12.29082031 1.50352539 -12.29082031 1.50352539 -10.9296875 1.44335938 C-10.07890625 1.40146484 -9.228125 1.35957031 -8.3515625 1.31640625 C-7.56604004 1.27974854 -6.78051758 1.24309082 -5.97119141 1.20532227 C-3.71076818 0.96987318 -2.28693751 0 0 0 Z " fill="#2D2A2B" transform="translate(181,79)"/>
<path d="M0 0 C3.39762089 1.98194552 4.69546359 2.96926138 5.8125 6.75 C5.874375 7.4925 5.93625 8.235 6 9 C3.69 9 1.38 9 -1 9 C-1.495 7.515 -1.495 7.515 -2 6 C-6.10223585 4.98459888 -6.10223585 4.98459888 -10 6 C-10 6.99 -10 7.98 -10 9 C-9.02417969 9.31453125 -8.04835937 9.6290625 -7.04296875 9.953125 C-5.75757714 10.38471634 -4.47243361 10.817047 -3.1875 11.25 C-2.22360352 11.55744141 -2.22360352 11.55744141 -1.24023438 11.87109375 C3.09805431 13.35465361 4.10331523 14.13775364 7 18 C10.465 9.09 10.465 9.09 14 0 C16.31 0 18.62 0 21 0 C22.30352292 3.14104638 23.59055489 6.28860948 24.875 9.4375 C25.42220703 10.75524414 25.42220703 10.75524414 25.98046875 12.09960938 C28.25113378 17.6937023 29.8539056 23.0704695 31 29 C29.02 29 27.04 29 25 29 C24.01 26.525 24.01 26.525 23 24 C19.37 24 15.74 24 12 24 C11.34 25.65 10.68 27.3 10 29 C7 29 4 29 1 29 C-0.485 29.495 -0.485 29.495 -2 30 C-8.47305293 30.53942108 -11.6083213 29.59445247 -17 26 C-17.78375 26.66 -18.5675 27.32 -19.375 28 C-23.55429855 30.81279759 -28.13105183 30.72070489 -33 30 C-33.99 29.34 -34.98 28.68 -36 28 C-36.33 28.33 -36.66 28.66 -37 29 C-38.99958364 29.04080783 -41.00045254 29.04254356 -43 29 C-43.66 27.02 -44.32 25.04 -45 23 C-48.96 23 -52.92 23 -57 23 C-57.33 24.98 -57.66 26.96 -58 29 C-60.31 29 -62.62 29 -65 29 C-63.92323844 25.85187967 -62.83736191 22.70697312 -61.75 19.5625 C-61.44964844 18.68400391 -61.14929688 17.80550781 -60.83984375 16.90039062 C-58.83673192 11.12546185 -56.57835969 5.54211808 -54 0 C-51.69 0 -49.38 0 -47 0 C-46.81937012 0.54003662 -46.63874023 1.08007324 -46.45263672 1.63647461 C-45.61914495 4.07982177 -44.74780962 6.50793541 -43.875 8.9375 C-43.59140625 9.78763672 -43.3078125 10.63777344 -43.015625 11.51367188 C-42.16084379 13.845738 -41.35569883 15.91704329 -40 18 C-36.94034915 19.01984046 -36.94034915 19.01984046 -34 19 C-33.505 19.845625 -33.01 20.69125 -32.5 21.5625 C-32.005 22.366875 -31.51 23.17125 -31 24 C-27.84010585 24.38692581 -25.86120256 24.43060128 -23 23 C-23.04200014 21.03627705 -23.04200014 21.03627705 -24 19 C-26.67243958 17.73888073 -26.67243958 17.73888073 -29.875 16.9375 C-36.84719355 14.98024567 -36.84719355 14.98024567 -39 12 C-39.62025759 7.81326127 -39.42684146 5.71648388 -37.25 2.0625 C-32.43189446 -0.9951439 -27.5691894 -0.91926097 -22 0 C-19.62890625 1.40625 -19.62890625 1.40625 -18 3 C-18 3.66 -18 4.32 -18 5 C-16.6078125 3.7934375 -16.6078125 3.7934375 -15.1875 2.5625 C-10.38691046 -1.59801094 -5.96286414 -1.34949031 0 0 Z " fill="#2C2829" transform="translate(81,149)"/>
<path d="M0 0 C1.65 0 3.3 0 5 0 C8.45463561 6.49654926 11.32867911 13.09401605 13.85595703 19.99633789 C15.19280355 23.51207062 15.77553657 24.85035771 19 27 C19 19.08 19 11.16 19 3 C18.01 2.67 17.02 2.34 16 2 C16 1.67 16 1.34 16 1 C19.96 1 23.92 1 28 1 C32 7.75 32 7.75 32 10 C32.66 10 33.32 10 34 10 C34.433125 8.6078125 34.433125 8.6078125 34.875 7.1875 C36 4 36 4 38 1 C40.64 1 43.28 1 46 1 C46.33 9.58 46.66 18.16 47 27 C47.99 27 48.98 27 50 27 C50 19.08 50 11.16 50 3 C49.01 2.67 48.02 2.34 47 2 C47 1.67 47 1.34 47 1 C54.26 1 61.52 1 69 1 C69.495 4.96 69.495 4.96 70 9 C66.125 7.125 66.125 7.125 65 6 C62.67182036 5.63239269 60.3381615 5.29758419 58 5 C58.495 8.96 58.495 8.96 59 13 C59.33 12.34 59.66 11.68 60 11 C62.31 11 64.62 11 67 11 C67 12.98 67 14.96 67 17 C64.03 17 61.06 17 58 17 C58.495 19.97 58.495 19.97 59 23 C64.39449293 23.27429625 67.51925805 23.36055646 72 20 C72.09765625 26.15234375 72.09765625 26.15234375 72 28 C70.32326351 29.67673649 68.27144924 29.12787817 66.03344727 29.13894653 C65.34178467 29.1369223 64.65012207 29.13489807 63.9375 29.1328125 C63.23101318 29.13376923 62.52452637 29.13472595 61.79663086 29.13571167 C60.30029207 29.13639333 58.80395033 29.13454005 57.30761719 29.13037109 C55.00969843 29.12502257 52.71197514 29.13031651 50.4140625 29.13671875 C48.96354123 29.13605797 47.51302009 29.1347768 46.0625 29.1328125 C45.0250061 29.13584885 45.0250061 29.13584885 43.96655273 29.13894653 C39.11495224 29.11495224 39.11495224 29.11495224 38 28 C37.76472227 25.65012738 37.58613583 23.29443961 37.4375 20.9375 C37.35371094 19.64714844 37.26992188 18.35679688 37.18359375 17.02734375 C37.12300781 16.02832031 37.06242187 15.02929688 37 14 C35.68 16.31 34.36 18.62 33 21 C31.1875 20.9375 31.1875 20.9375 29 20 C27.25 16.4375 27.25 16.4375 26 13 C26 17.29 26 21.58 26 26 C26.99 26.33 27.98 26.66 29 27 C29 27.66 29 28.32 29 29 C22.07 29 15.14 29 8 29 C6 24 6 24 6 21 C3.03 21.33 0.06 21.66 -3 22 C-3 23.32 -3 24.64 -3 26 C-2.01 26.33 -1.02 26.66 0 27 C0 27.66 0 28.32 0 29 C-3.3 29 -6.6 29 -10 29 C-11.36216443 25.39895893 -10.88816305 23.20583379 -9.453125 19.78515625 C-8.73241729 18.20463364 -7.99752758 16.63051589 -7.25 15.0625 C-6.8890625 14.27681641 -6.528125 13.49113281 -6.15625 12.68164062 C-4.18472863 8.41358259 -2.12682039 4.19306678 0 0 Z " fill="#2B2728" transform="translate(26,80)"/>
<path d="M0 0 C2.31 0 4.62 0 7 0 C7.75097435 1.79125849 8.50071462 3.58303436 9.25 5.375 C9.66765625 6.37273437 10.0853125 7.37046875 10.515625 8.3984375 C12.37841688 12.91815885 14.18443987 17.46109969 16 22 C16.33 14.74 16.66 7.48 17 0 C19.866875 -0.0825 22.73375 -0.165 25.6875 -0.25 C26.58170654 -0.28641602 27.47591309 -0.32283203 28.3972168 -0.36035156 C32.41150506 -0.41617434 34.52537826 -0.28380071 38.05078125 1.82421875 C40 4 40 4 40.5 7.0625 C39.96917166 10.18111649 39.4832167 11.13758747 37 13 C37.66 13.515625 38.32 14.03125 39 14.5625 C41 17 41 17 41.4375 20.5 C40.98759997 24.09920025 40.57777032 25.51770265 38 28 C34.8815675 29.0394775 32.72524414 29.11494838 29.45703125 29.09765625 C28.38388672 29.09443359 27.31074219 29.09121094 26.20507812 29.08789062 C25.08552734 29.07951172 23.96597656 29.07113281 22.8125 29.0625 C21.68134766 29.05798828 20.55019531 29.05347656 19.38476562 29.04882812 C16.58979073 29.03703498 13.7949218 29.0205765 11 29 C10.34 27.35 9.68 25.7 9 24 C5.37 24 1.74 24 -2 24 C-2.99 26.475 -2.99 26.475 -4 29 C-5.98 29 -7.96 29 -10 29 C-9.42098044 24.86414598 -8.47957878 21.25866229 -6.93359375 17.3828125 C-6.53076172 16.36445313 -6.12792969 15.34609375 -5.71289062 14.296875 C-5.29201172 13.25015625 -4.87113281 12.2034375 -4.4375 11.125 C-4.01275391 10.05507812 -3.58800781 8.98515625 -3.15039062 7.8828125 C-2.10553151 5.25305474 -1.05526218 2.62559658 0 0 Z " fill="#282425" transform="translate(128,149)"/>
<path d="M0 0 C5.33739473 1.98844117 8.45333824 4.90667648 11 10 C11.72156957 17.13289263 11.42959784 22.25349469 7 28 C3.32951073 31.25100478 -0.1157586 31.44664665 -4.83984375 31.3046875 C-7.73641474 30.89612957 -9.70493784 29.77682232 -12 28 C-12.33 28.66 -12.66 29.32 -13 30 C-19.27 30 -25.54 30 -32 30 C-32 20.43 -32 10.86 -32 1 C-29.69 1 -27.38 1 -25 1 C-25 8.59 -25 16.18 -25 24 C-22.03 24 -19.06 24 -16 24 C-16.33 23.01 -16.66 22.02 -17 21 C-17.50179253 15.75996977 -17.649025 11.37293749 -15.375 6.5625 C-10.65339967 1.46814175 -7.0756057 -0.88445071 0 0 Z " fill="#2E2B2B" transform="translate(202,148)"/>
<path d="M0 0 C3.62493334 -0.05787784 7.24974857 -0.0935542 10.875 -0.125 C11.90753906 -0.14175781 12.94007812 -0.15851563 14.00390625 -0.17578125 C14.99003906 -0.18222656 15.97617188 -0.18867187 16.9921875 -0.1953125 C18.35899658 -0.21102295 18.35899658 -0.21102295 19.75341797 -0.22705078 C22 0 22 0 24 2 C24.375 5.375 24.375 5.375 24 9 C22 11.4375 22 11.4375 20 13 C20.5775 13.495 21.155 13.99 21.75 14.5 C24.21680894 17.24089882 25.50103985 19.84785888 26.97265625 23.1953125 C28.0093151 25.33025226 28.0093151 25.33025226 31 27 C30 28 30 28 27.49609375 28.09765625 C26.48675781 28.08605469 25.47742188 28.07445313 24.4375 28.0625 C23.42558594 28.05347656 22.41367188 28.04445313 21.37109375 28.03515625 C20.19740234 28.01775391 20.19740234 28.01775391 19 28 C18.51080078 26.71802734 18.51080078 26.71802734 18.01171875 25.41015625 C17.35623047 23.75306641 17.35623047 23.75306641 16.6875 22.0625 C16.25824219 20.96035156 15.82898438 19.85820313 15.38671875 18.72265625 C14.24391139 15.69139735 14.24391139 15.69139735 11 15 C11.33 18.3 11.66 21.6 12 25 C12.99 25.33 13.98 25.66 15 26 C15 26.66 15 27.32 15 28 C11.04 28 7.08 28 3 28 C2.92652344 25.34517578 2.92652344 25.34517578 2.8515625 22.63671875 C2.77653668 20.32029641 2.70098877 18.00389095 2.625 15.6875 C2.5940625 14.52025391 2.563125 13.35300781 2.53125 12.15039062 C2.49257812 11.03212891 2.45390625 9.91386719 2.4140625 8.76171875 C2.3826416 7.73006592 2.3512207 6.69841309 2.31884766 5.63549805 C2.17325371 2.77156764 2.17325371 2.77156764 0 0 Z " fill="#292526" transform="translate(96,81)"/>
<path d="M0 0 C3.62493334 -0.05787784 7.24974857 -0.0935542 10.875 -0.125 C11.90753906 -0.14175781 12.94007813 -0.15851563 14.00390625 -0.17578125 C14.99003906 -0.18222656 15.97617188 -0.18867187 16.9921875 -0.1953125 C18.35899658 -0.21102295 18.35899658 -0.21102295 19.75341797 -0.22705078 C22 0 22 0 24 2 C24.52981019 5.97357645 24.31881474 7.54170381 22 10.875 C21.34 11.57625 20.68 12.2775 20 13 C20.5775 13.495 21.155 13.99 21.75 14.5 C24.23703087 17.26336763 25.5595985 19.92819666 27.0703125 23.29296875 C27.88848634 25.18240609 27.88848634 25.18240609 30 26 C30 26.66 30 27.32 30 28 C26.37 28 22.74 28 19 28 C16.525 22.06 16.525 22.06 14 16 C13.01 16 12.02 16 11 16 C10.73067479 20.65052872 10.73067479 20.65052872 12 25 C12.99 25.33 13.98 25.66 15 26 C15 26.66 15 27.32 15 28 C13.18757948 28.02687279 11.37504767 28.04633715 9.5625 28.0625 C8.55316406 28.07410156 7.54382813 28.08570312 6.50390625 28.09765625 C4 28 4 28 3 27 C2.86656519 25.25577625 2.79655641 23.50661274 2.75390625 21.7578125 C2.72103516 20.69175781 2.68816406 19.62570313 2.65429688 18.52734375 C2.59331235 16.2670237 2.5359946 14.00660161 2.48242188 11.74609375 C2.44826172 10.67746094 2.41410156 9.60882813 2.37890625 8.5078125 C2.34132202 7.03272217 2.34132202 7.03272217 2.30297852 5.52783203 C2.1638575 2.75640137 2.1638575 2.75640137 0 0 Z " fill="#282425" transform="translate(204,81)"/>
<path d="M0 0 C0.66 0 1.32 0 2 0 C2 2.64 2 5.28 2 8 C3.82303854 7.99861731 3.82303854 7.99861731 5.68290615 7.99720669 C34.50325222 7.97557036 63.32359815 7.95907028 92.14395046 7.94893467 C95.68768248 7.94768389 99.23141449 7.94638958 102.77514648 7.94506836 C103.48066926 7.94480605 104.18619204 7.94454374 104.91309429 7.94427348 C116.35170668 7.93991671 127.79031407 7.93202912 139.22892349 7.9228472 C150.95732671 7.91351086 162.6857273 7.90794443 174.41413409 7.90591151 C181.00543844 7.90460395 187.59673143 7.90151529 194.18803215 7.89426994 C200.38407625 7.88751386 206.58010423 7.88538219 212.77615166 7.88689232 C215.05750109 7.8866158 217.33885103 7.88460826 219.6201973 7.88079453 C222.72024268 7.8758637 225.82022619 7.87699944 228.92027283 7.87974548 C230.29329926 7.87537622 230.29329926 7.87537622 231.6940636 7.87091869 C237.88587879 7.88587879 237.88587879 7.88587879 239 9 C239.07179964 10.51928038 239.08392007 12.04167482 239.0625 13.5625 C239.05347656 14.38878906 239.04445312 15.21507812 239.03515625 16.06640625 C239.01775391 17.02353516 239.01775391 17.02353516 239 18 C238.34 18 237.68 18 237 18 C237 15.36 237 12.72 237 10 C235.17696146 10.00138269 235.17696146 10.00138269 233.31709385 10.00279331 C204.49674778 10.02442964 175.67640185 10.04092972 146.85604954 10.05106533 C143.31231752 10.05231611 139.76858551 10.05361042 136.22485352 10.05493164 C135.51933074 10.05519395 134.81380796 10.05545626 134.08690571 10.05572652 C122.64829332 10.06008329 111.20968593 10.06797088 99.77107651 10.0771528 C88.04267329 10.08648914 76.3142727 10.09205557 64.58586591 10.09408849 C57.99456156 10.09539605 51.40326857 10.09848471 44.81196785 10.10573006 C38.61592375 10.11248614 32.41989577 10.11461781 26.22384834 10.11310768 C23.94249891 10.1133842 21.66114897 10.11539174 19.3798027 10.11920547 C16.27975732 10.1241363 13.17977381 10.12300056 10.07972717 10.12025452 C9.16437622 10.12316736 8.24902526 10.1260802 7.3059364 10.12908131 C1.11412121 10.11412121 1.11412121 10.11412121 0 9 C-0.07179964 7.48071962 -0.08392007 5.95832518 -0.0625 4.4375 C-0.05347656 3.61121094 -0.04445313 2.78492187 -0.03515625 1.93359375 C-0.02355469 1.29550781 -0.01195312 0.65742187 0 0 Z " fill="#292526" transform="translate(7,120)"/>
<path d="M0 0 C1.2065625 0.0309375 1.2065625 0.0309375 2.4375 0.0625 C5.91935749 7.48089054 9.26949905 14.91311101 12.359375 22.50390625 C13.29714003 24.72939936 14.35747937 26.90245874 15.4375 29.0625 C12.1375 29.0625 8.8375 29.0625 5.4375 29.0625 C3.4375 25.0625 3.4375 25.0625 3.4375 21.0625 C0.4675 21.3925 -2.5025 21.7225 -5.5625 22.0625 C-5.5625 23.3825 -5.5625 24.7025 -5.5625 26.0625 C-4.9025 26.3925 -4.2425 26.7225 -3.5625 27.0625 C-3.5625 27.7225 -3.5625 28.3825 -3.5625 29.0625 C-7.1925 29.0625 -10.8225 29.0625 -14.5625 29.0625 C-12.79910195 22.22933257 -10.3049839 15.93023097 -7.4375 9.5 C-6.89609375 8.28497803 -6.89609375 8.28497803 -6.34375 7.04541016 C-3.19514155 0.07793028 -3.19514155 0.07793028 0 0 Z " fill="#2C2829" transform="translate(190.5625,79.9375)"/>
<path d="M0 0 C1.65 0 3.3 0 5 0 C8.42422396 6.43935921 11.28398924 12.97086426 13.76806641 19.82055664 C15.37325221 24.05600012 16.62321831 25.62321831 20 29 C16.04 29 12.08 29 8 29 C6 24 6 24 6 21 C3.03 21.33 0.06 21.66 -3 22 C-3 23.32 -3 24.64 -3 26 C-2.01 26.33 -1.02 26.66 0 27 C0 27.66 0 28.32 0 29 C-3.3 29 -6.6 29 -10 29 C-11.36216443 25.39895893 -10.88816305 23.20583379 -9.453125 19.78515625 C-8.73241729 18.20463364 -7.99752758 16.63051589 -7.25 15.0625 C-6.8890625 14.27681641 -6.528125 13.49113281 -6.15625 12.68164062 C-4.18472863 8.41358259 -2.12682039 4.19306678 0 0 Z " fill="#2B2728" transform="translate(26,80)"/>
<path d="M0 0 C3.0625 -0.625 3.0625 -0.625 7 0 C9.78438501 3.06389856 11.90690139 6.43727895 14 10 C14.52787109 8.9171875 14.52787109 8.9171875 15.06640625 7.8125 C16.55885877 5.00684514 17.99986675 2.47304979 20 0 C23.875 -0.625 23.875 -0.625 27 0 C25.59041445 3.90292281 23.69835864 7.09333278 21.4375 10.5625 C17.76506964 16.69591585 16.91217665 21.92394726 17 29 C14.69 29 12.38 29 10 29 C10.03222656 28.23558594 10.06445312 27.47117188 10.09765625 26.68359375 C9.98212788 16.01647424 5.67951915 9.5823845 0 1 C0 0.67 0 0.34 0 0 Z " fill="#2C2829" transform="translate(209,149)"/>
<path d="M0 0 C-0.33 2.31 -0.66 4.62 -1 7 C-3.64 7 -6.28 7 -9 7 C-8.91932999 10.12607441 -8.8064771 13.25016751 -8.6875 16.375 C-8.66494141 17.26445313 -8.64238281 18.15390625 -8.61914062 19.0703125 C-8.58369141 19.92109375 -8.54824219 20.771875 -8.51171875 21.6484375 C-8.48553467 22.43395996 -8.45935059 23.21948242 -8.43237305 24.02880859 C-8.15110403 26.40040156 -8.15110403 26.40040156 -5 28 C-5 28.66 -5 29.32 -5 30 C-6.81242052 30.02687279 -8.62495233 30.04633715 -10.4375 30.0625 C-11.44683594 30.07410156 -12.45617187 30.08570312 -13.49609375 30.09765625 C-16 30 -16 30 -17 29 C-17.01662231 27.5086609 -16.963192 26.01639195 -16.87890625 24.52734375 C-16.83056641 23.62822266 -16.78222656 22.72910156 -16.73242188 21.80273438 C-16.67634766 20.85720703 -16.62027344 19.91167969 -16.5625 18.9375 C-16.51029297 17.98810547 -16.45808594 17.03871094 -16.40429688 16.06054688 C-16.27418642 13.70673048 -16.13920888 11.35329301 -16 9 C-15.01 8.67 -14.02 8.34 -13 8 C-16.63 8 -20.26 8 -24 8 C-23.67 6.02 -23.34 4.04 -23 2 C-22.15236084 1.96241577 -22.15236084 1.96241577 -21.28759766 1.92407227 C-18.73316258 1.80820044 -16.1791045 1.68543463 -13.625 1.5625 C-12.29082031 1.50352539 -12.29082031 1.50352539 -10.9296875 1.44335938 C-10.07890625 1.40146484 -9.228125 1.35957031 -8.3515625 1.31640625 C-7.56604004 1.27974854 -6.78051758 1.24309082 -5.97119141 1.20532227 C-3.71076818 0.96987318 -2.28693751 0 0 0 Z " fill="#262223" transform="translate(181,79)"/>
<path d="M0 0 C3.01094689 2.02911638 4.69300642 3.52376129 5.44921875 7.16015625 C5.63745689 11.0482475 5.22543 13.53974709 3.5 17.0625 C0.48171971 19.40166723 -1.3331616 19.79945183 -5.09375 19.546875 C-7 19 -7 19 -9.5 16.4375 C-11.20147868 12.53827802 -11.53575147 10.20947587 -11 6 C-8.36812497 0.49698858 -6.09986598 -0.71763129 0 0 Z " fill="#F6F6F6" transform="translate(202,154)"/>
<path d="M0 0 C1.97558594 1.15356445 1.97558594 1.15356445 4 3 C4.45410156 5.54370117 4.45410156 5.54370117 4.390625 8.54296875 C4.37773438 9.61611328 4.36484375 10.68925781 4.3515625 11.79492188 C4.31804687 12.91447266 4.28453125 14.03402344 4.25 15.1875 C4.23195313 16.31865234 4.21390625 17.44980469 4.1953125 18.61523438 C4.14812652 21.41100376 4.08230595 24.20507972 4 27 C3.67 27 3.34 27 3 27 C2.67 24.69 2.34 22.38 2 20 C1.505 20.495 1.01 20.99 0.5 21.5 C-3.14951034 23.68970621 -5.77948352 23.27675518 -10 23 C-11 22 -11 22 -11.0625 18.9375 C-11.041875 17.968125 -11.02125 16.99875 -11 16 C-8.03 16 -5.06 16 -2 16 C-2 14.02 -2 12.04 -2 10 C-4.31 10 -6.62 10 -9 10 C-9.33 10.99 -9.66 11.98 -10 13 C-10.33 13 -10.66 13 -11 13 C-11 10.03 -11 7.06 -11 4 C-6.75519536 3.66707415 -4.64457375 3.56114128 -1.0625 6 C-0.381875 6.66 0.29875 7.32 1 8 C0.67 5.36 0.34 2.72 0 0 Z " fill="#F5F4F4" transform="translate(95,81)"/>
<path d="M0 0 C1.134375 0.020625 2.26875 0.04125 3.4375 0.0625 C4.0975 1.3825 4.7575 2.7025 5.4375 4.0625 C7.4175 4.0625 9.3975 4.0625 11.4375 4.0625 C11.64375 4.660625 11.85 5.25875 12.0625 5.875 C15.32110775 11.05914869 22.85206213 12.31239613 28.4375 14.0625 C27.5625 18.9375 27.5625 18.9375 26.4375 20.0625 C22.40589809 20.32543056 20.87857266 20.35654844 17.4375 18.0625 C17.1075 17.0725 16.7775 16.0825 16.4375 15.0625 C15.839375 14.93875 15.24125 14.815 14.625 14.6875 C12.4375 14.0625 12.4375 14.0625 10.9375 11.75 C7.49744573 8.05194166 3.82479976 7.41321832 -0.98046875 6.15234375 C-3.5625 5.0625 -3.5625 5.0625 -4.48828125 3.00390625 C-4.51277344 2.36324219 -4.53726563 1.72257813 -4.5625 1.0625 C-3.5625 0.0625 -3.5625 0.0625 0 0 Z " fill="#F5F5F5" transform="translate(52.5625,153.9375)"/>
<path d="M0 0 C1.32 0.33 2.64 0.66 4 1 C4 8.92 4 16.84 4 25 C3.01 25 2.02 25 1 25 C-0.27861615 22.44276771 -0.11336609 20.63262898 -0.09765625 17.7734375 C-0.09443359 16.7421875 -0.09121094 15.7109375 -0.08789062 14.6484375 C-0.07951172 13.56820312 -0.07113281 12.48796875 -0.0625 11.375 C-0.05798828 10.28703125 -0.05347656 9.1990625 -0.04882812 8.078125 C-0.03701776 5.38536211 -0.02054778 2.69270812 0 0 Z " fill="#F1F1F1" transform="translate(72,82)"/>
<path d="M0 0 C1.62463842 -0.05395478 3.24978541 -0.09277195 4.875 -0.125 C5.77992188 -0.14820313 6.68484375 -0.17140625 7.6171875 -0.1953125 C10 0 10 0 12 2 C11.44444444 6.55555556 11.44444444 6.55555556 10 8 C8.31391034 8.07205511 6.62499341 8.08386068 4.9375 8.0625 C4.01839844 8.05347656 3.09929687 8.04445312 2.15234375 8.03515625 C1.44207031 8.02355469 0.73179687 8.01195312 0 8 C0 5.36 0 2.72 0 0 Z " fill="#EBEBEB" transform="translate(151,165)"/>
<path d="M0 0 C1.45792884 -0.05399736 2.91642712 -0.09279177 4.375 -0.125 C5.18710938 -0.14820313 5.99921875 -0.17140625 6.8359375 -0.1953125 C9 0 9 0 11 2 C10.46428571 5.53571429 10.46428571 5.53571429 9 7 C7.48071962 7.07179964 5.95832518 7.08392007 4.4375 7.0625 C3.61121094 7.05347656 2.78492188 7.04445312 1.93359375 7.03515625 C1.29550781 7.02355469 0.65742188 7.01195312 0 7 C0 4.69 0 2.38 0 0 Z " fill="#E8E7E7" transform="translate(151,154)"/>
<path d="M0 0 C1.22589844 0.15275391 1.22589844 0.15275391 2.4765625 0.30859375 C3.41628906 0.43427734 3.41628906 0.43427734 4.375 0.5625 C5 2.9375 5 2.9375 5.375 5.5625 C4.715 6.2225 4.055 6.8825 3.375 7.5625 C0.49812519 7.34120194 -1.16451144 6.92771506 -3.4375 5.125 C-4.625 3.5625 -4.625 3.5625 -4.625 1.5625 C-5.285 1.2325 -5.945 0.9025 -6.625 0.5625 C-4.10446405 -0.69776798 -2.7707902 -0.35624445 0 0 Z " fill="#F1F1F1" transform="translate(145.625,97.4375)"/>
<path d="M0 0 C3.57321129 0.40604674 5.1399565 1.92617451 7.75 4.3125 C8.08 3.6525 8.41 2.9925 8.75 2.3125 C8.42 3.9625 8.09 5.6125 7.75 7.3125 C4.45 6.6525 1.15 5.9925 -2.25 5.3125 C-2.58 3.9925 -2.91 2.6725 -3.25 1.3125 C-2.25 0.3125 -2.25 0.3125 0 0 Z " fill="#EAE9EA" transform="translate(147.25,84.6875)"/>
<path d="M0 0 C0.66 0.33 1.32 0.66 2 1 C2.6328125 3.06640625 2.6328125 3.06640625 3.125 5.5625 C3.29257813 6.38878906 3.46015625 7.21507812 3.6328125 8.06640625 C3.75398437 8.70449219 3.87515625 9.34257812 4 10 C1.69 10 -0.62 10 -3 10 C-2.01 6.7 -1.02 3.4 0 0 Z " fill="#E4E4E4" transform="translate(131,157)"/>
<path d="M0 0 C2.95183101 2.95183101 3.08663988 5.95511947 4 10 C1.69 10 -0.62 10 -3 10 C-2.69201674 8.51988629 -2.378482 7.04092675 -2.0625 5.5625 C-1.88847656 4.73878906 -1.71445312 3.91507813 -1.53515625 3.06640625 C-1 1 -1 1 0 0 Z " fill="#E4E3E4" transform="translate(30,157)"/>
<path d="M0 0 C2.95183101 2.95183101 3.08663988 5.95511947 4 10 C1.69 10 -0.62 10 -3 10 C-2.49287967 6.28111761 -1.88391785 3.26545761 0 0 Z " fill="#E8E7E7" transform="translate(98,157)"/>
<path d="M0 0 C2.475 0.495 2.475 0.495 5 1 C5.3125 3.25 5.3125 3.25 5 6 C2.5 8.3125 2.5 8.3125 0 10 C0 6.7 0 3.4 0 0 Z " fill="#F5F5F5" transform="translate(107,84)"/>
<path d="M0 0 C2.475 0.495 2.475 0.495 5 1 C5 2.65 5 4.3 5 6 C4.360625 6.12375 3.72125 6.2475 3.0625 6.375 C2.0415625 6.684375 2.0415625 6.684375 1 7 C0.67 7.66 0.34 8.32 0 9 C0 6.03 0 3.06 0 0 Z " fill="#F5F5F5" transform="translate(215,84)"/>
<path d="M0 0 C2.125 0.375 2.125 0.375 4 1 C4 2.32 4 3.64 4 5 C2.68 5.33 1.36 5.66 0 6 C-0.66 4.68 -1.32 3.36 -2 2 C-1.34 1.34 -0.68 0.68 0 0 Z " fill="#A19F9F" transform="translate(232,81)"/>
<path d="M0 0 C0.66 0 1.32 0 2 0 C2.33 1.98 2.66 3.96 3 6 C2.01 6 1.02 6 0 6 C-0.33 6.99 -0.66 7.98 -1 9 C-2.0326802 6.21176345 -2.04509293 5.1322726 -1.0625 2.25 C-0.711875 1.5075 -0.36125 0.765 0 0 Z " fill="#E1E1E1" transform="translate(26,90)"/>
<path d="M0 0 C0.66 0 1.32 0 2 0 C2.33 1.98 2.66 3.96 3 6 C1.35 6.66 -0.3 7.32 -2 8 C-1.125 2.25 -1.125 2.25 0 0 Z " fill="#E4E4E4" transform="translate(188,90)"/>
</svg>
