<?xml version="1.0" encoding="UTF-8"?>
<svg version="1.1" xmlns="http://www.w3.org/2000/svg" width="1000" height="1000">
<path d="M0 0 C100.65 0 201.3 0 305 0 C305 100.65 305 201.3 305 305 C204.35 305 103.7 305 0 305 C0 204.35 0 103.7 0 0 Z " fill="#FFC20E" transform="translate(516,516)"/>
<path d="M0 0 C100.65 0 201.3 0 305 0 C305 100.65 305 201.3 305 305 C204.35 305 103.7 305 0 305 C0 204.35 0 103.7 0 0 Z " fill="#00AEEF" transform="translate(181,516)"/>
<path d="M0 0 C100.65 0 201.3 0 305 0 C305 100.65 305 201.3 305 305 C204.35 305 103.7 305 0 305 C0 204.35 0 103.7 0 0 Z " fill="#8DC63F" transform="translate(516,181)"/>
<path d="M0 0 C100.65 0 201.3 0 305 0 C305 100.65 305 201.3 305 305 C204.35 305 103.7 305 0 305 C0 204.35 0 103.7 0 0 Z " fill="#F26522" transform="translate(181,181)"/>
</svg>
